<?xml version="1.0" standalone="no"?>
<!DOCTYPE svg PUBLIC "-//W3C//DTD SVG 20010904//EN"
 "http://www.w3.org/TR/2001/REC-SVG-20010904/DTD/svg10.dtd">
<svg version="1.0" xmlns="http://www.w3.org/2000/svg"
 width="16.000000pt" height="16.000000pt" viewBox="0 0 16.000000 16.000000"
 preserveAspectRatio="xMidYMid meet">
<metadata>
Created by potrace 1.11, written by Peter Selinger 2001-2013
</metadata>
<g transform="translate(0.000000,16.000000) scale(0.005333,-0.005333)"
fill="#000000" stroke="none">
<path d="M635 2724 c-38 -13 -59 -33 -76 -74 -7 -16 -10 -411 -10 -1156 l-1
-1132 24 -36 c43 -66 5 -63 939 -62 l845 1 37 25 c20 13 41 35 47 48 11 25 15
1700 4 1711 -2 3 -125 5 -272 6 l-267 0 -47 27 c-32 19 -52 41 -67 71 -20 41
-21 60 -21 314 l0 270 -550 0 c-410 0 -559 -4 -585 -13z m1043 -926 c7 -7 12
-36 12 -65 0 -44 -3 -55 -20 -61 -11 -4 -207 -7 -435 -7 -466 1 -435 -5 -435
77 0 34 5 50 18 57 26 16 844 15 860 -1z m510 -340 c18 -18 15 -103 -4 -119
-23 -19 -1345 -19 -1368 0 -19 16 -22 101 -4 119 17 17 1359 17 1376 0z m-3
-338 c18 -15 21 -100 3 -118 -17 -17 -1359 -17 -1376 0 -7 7 -12 35 -12 63 0
42 4 54 20 61 12 5 309 9 685 8 523 -1 667 -4 680 -14z m5 -340 c5 -8 10 -34
10 -57 0 -78 50 -73 -705 -73 -656 0 -675 1 -685 19 -16 30 -12 102 6 115 11
9 197 12 690 11 589 0 676 -2 684 -15z"/>
<path d="M1865 2464 l0 -266 28 -24 28 -24 265 0 264 0 -290 290 c-159 160
-291 290 -293 290 -2 0 -3 -120 -2 -266z"/>
</g>
</svg>
