<?xml version="1.0" encoding="UTF-8" standalone="no"?>
<svg xmlns:dc="http://purl.org/dc/elements/1.1/" xmlns:cc="http://creativecommons.org/ns#" xmlns:rdf="http://www.w3.org/1999/02/22-rdf-syntax-ns#" xmlns:svg="http://www.w3.org/2000/svg" xmlns="http://www.w3.org/2000/svg" version="1.1" id="svg4203" viewBox="0 0 199.99999 259.76924" height="73.312653mm" width="56.444443mm">
  <defs id="defs4205" />
  <metadata id="metadata4208">
    <rdf:RDF>
      <cc:Work rdf:about="">
        <dc:format>image/svg+xml</dc:format>
        <dc:type rdf:resource="http://purl.org/dc/dcmitype/StillImage" />
        <dc:title></dc:title>
      </cc:Work>
    </rdf:RDF>
  </metadata>
  <g transform="translate(-299.31552,-421.39628)" id="layer1">
    <path d="m 313.39245,421.39628 c -7.83705,0 -14.07693,6.3168 -14.07693,14.15385 l 0,231.46155 c 0,7.83702 6.23988,14.15385 14.07693,14.15385 l 171.84614,0 c 7.83705,0 14.07693,-6.31683 14.07693,-14.15385 l 0,-173.92309 -51.76923,0 c -10.59965,0 -19.84615,-7.73194 -19.84615,-18 l 0,-53.69231 -114.30769,0 z m 124.15384,0 0,53.69231 c 0,4.2194 4.01716,8.15385 10,8.15385 l 51.76923,0 -61.76923,-61.84616 z m -107.38462,97.38461 84.92308,0 c 2.41,0 4.3077,1.9746 4.3077,4.38461 l 0,6.46155 c 0,2.41002 -1.8977,4.38462 -4.3077,4.38462 l -84.92308,0 c -2.41001,0 -4.30768,-1.9746 -4.30768,-4.38462 l 0,-6.46155 c 0,-2.41001 1.89767,-4.38461 4.30768,-4.38461 z m 0,35.46154 138.23077,0 c 2.40999,0 4.38461,1.9746 4.38461,4.38462 l 0,6.53845 c 0,2.41003 -1.97462,4.3077 -4.38461,4.3077 l -138.23077,0 c -2.41001,0 -4.30768,-1.89767 -4.30768,-4.3077 l 0,-6.53845 c 0,-2.41002 1.89767,-4.38462 4.30768,-4.38462 z m 0,35.53846 138.23077,0 c 2.40999,0 4.38461,1.89767 4.38461,4.3077 l 0,6.53845 c 0,2.41002 -1.97462,4.38462 -4.38461,4.38462 l -138.23077,0 c -2.41001,0 -4.30768,-1.9746 -4.30768,-4.38462 l 0,-6.53845 c 0,-2.41003 1.89767,-4.3077 4.30768,-4.3077 z m 0,35.46153 138.23077,0 c 2.40999,0 4.38461,1.89768 4.38461,4.3077 l 0,6.53847 c 0,2.41001 -1.97462,4.38463 -4.38461,4.38463 l -138.23077,0 c -2.41001,0 -4.30768,-1.97462 -4.30768,-4.38463 l 0,-6.53847 c 0,-2.41002 1.89767,-4.3077 4.30768,-4.3077 z" style="fill:#ffffff;fill-opacity:1;stroke:none" id="path4169" />
  </g>
</svg>
